<svg version="1.1" xmlns="http://www.w3.org/2000/svg" viewBox="0 0 712.5 438" width="712.5" height="438">
  <!-- svg-source:excalidraw -->
  
  <defs>
    <style class="style-fonts">
      @font-face {
        font-family: "Virgil";
        src: url("https://excalidraw.com/Virgil.woff2");
      }
      @font-face {
        font-family: "Cascadia";
        src: url("https://excalidraw.com/Cascadia.woff2");
      }
      @font-face {
        font-family: "Assistant";
        src: url("https://excalidraw.com/Assistant-Regular.woff2");
      }
    </style>
    
  </defs>
  <rect x="0" y="0" width="712.5" height="438" fill="#f5faff"></rect><g stroke-linecap="round" transform="translate(38.5 56) rotate(0 75.75 59.25)"><path d="M29.63 0 C61.93 -1.52, 91.51 -0.59, 121.88 0 M29.63 0 C59.97 -0.2, 90.45 -0.01, 121.88 0 M121.88 0 C140.62 -0.08, 150.14 8.7, 151.5 29.63 M121.88 0 C143.57 1.05, 151.34 9.62, 151.5 29.63 M151.5 29.63 C152.37 52.4, 149.48 75.55, 151.5 88.88 M151.5 29.63 C151.88 42.95, 150.45 58.6, 151.5 88.88 M151.5 88.88 C150.46 109.56, 139.65 118.85, 121.88 118.5 M151.5 88.88 C149.98 110.58, 143.01 118.65, 121.88 118.5 M121.88 118.5 C91.72 117.09, 63.87 117.9, 29.63 118.5 M121.88 118.5 C101.79 118.34, 82.06 116.98, 29.63 118.5 M29.63 118.5 C10.18 120.28, -1.05 109.32, 0 88.88 M29.63 118.5 C9.74 119.82, -0.9 109.3, 0 88.88 M0 88.88 C0.18 66.66, 0.65 46.06, 0 29.63 M0 88.88 C-0.34 75.23, 0.78 62.08, 0 29.63 M0 29.63 C-0.21 11.8, 10.54 1.95, 29.63 0 M0 29.63 C-1.35 10.12, 11.52 1.4, 29.63 0" stroke="#1e1e1e" stroke-width="2" fill="none"></path></g><g transform="translate(50.5 105) rotate(0 64.453125 12)"><text x="0" y="19.3125" font-family="Cascadia, Segoe UI Emoji" font-size="20px" fill="#1e1e1e" text-anchor="start" style="white-space: pre;" direction="ltr" dominant-baseline="alphabetic">WEB-Browser</text></g><g stroke-linecap="round"><g transform="translate(189.5 102) rotate(0 113.25 1)"><path d="M-1.03 0.77 C36.71 1.11, 189.55 1.13, 227.52 1.47 M0.64 0.12 C38.2 0.67, 189.51 2.59, 227.11 2.73" stroke="#1e1e1e" stroke-width="2" fill="none"></path></g><g transform="translate(189.5 102) rotate(0 113.25 1)"><path d="M203.55 11.07 C214.15 9.69, 221.26 5.25, 227.11 2.73 M203.55 11.07 C212.66 6.87, 221.84 5.51, 227.11 2.73" stroke="#1e1e1e" stroke-width="2" fill="none"></path></g><g transform="translate(189.5 102) rotate(0 113.25 1)"><path d="M203.7 -6.03 C214.15 -0.68, 221.21 1.62, 227.11 2.73 M203.7 -6.03 C212.62 -3.93, 221.74 1.01, 227.11 2.73" stroke="#1e1e1e" stroke-width="2" fill="none"></path></g></g><mask></mask><g transform="translate(227.51529947916674 70.5) rotate(0 71.21907552083331 11.75)"><text x="0" y="18.910156249999993" font-family="Cascadia, Segoe UI Emoji" font-size="19.58333333333333px" fill="#1e1e1e" text-anchor="start" style="white-space: pre;" direction="ltr" dominant-baseline="alphabetic">请求(request)</text></g><g transform="translate(227.78092447916674 139.75) rotate(0 76.94326782226562 11.75)"><text x="0" y="18.910156249999993" font-family="Cascadia, Segoe UI Emoji" font-size="19.58333333333333px" fill="#1e1e1e" text-anchor="start" style="white-space: pre;" direction="ltr" dominant-baseline="alphabetic">响应(response)</text></g><g stroke-linecap="round"><g transform="translate(415.00094225555665 128.57660675411114) rotate(0 -112 0)"><path d="M0.93 0.55 C-36.49 0.61, -186.15 0.7, -223.68 0.46 M-0.04 -0.2 C-37.66 -0.53, -186.94 -1.46, -224.46 -1.42" stroke="#1e1e1e" stroke-width="2" fill="none"></path></g><g transform="translate(415.00094225555665 128.57660675411114) rotate(0 -112 0)"><path d="M-200.94 -9.89 C-208.71 -6.05, -217.57 -3.89, -224.46 -1.42 M-200.94 -9.89 C-205.46 -8.88, -212.45 -5.75, -224.46 -1.42" stroke="#1e1e1e" stroke-width="2" fill="none"></path></g><g transform="translate(415.00094225555665 128.57660675411114) rotate(0 -112 0)"><path d="M-201 7.21 C-208.77 4.73, -217.6 0.55, -224.46 -1.42 M-201 7.21 C-205.63 4.31, -212.61 3.51, -224.46 -1.42" stroke="#1e1e1e" stroke-width="2" fill="none"></path></g></g><mask></mask><g stroke-linecap="round" transform="translate(416.75 47.75) rotate(0 75.75 59.25)"><path d="M29.63 0 C64.63 2.06, 103.8 -1.17, 121.88 0 M29.63 0 C63.03 -1.38, 95.93 -0.86, 121.88 0 M121.88 0 C142.49 1.52, 150 8.84, 151.5 29.63 M121.88 0 C139.56 -1.6, 152.82 7.92, 151.5 29.63 M151.5 29.63 C149.83 48.07, 150.72 64.12, 151.5 88.88 M151.5 29.63 C150.81 45.9, 150.83 64.15, 151.5 88.88 M151.5 88.88 C150.13 110.43, 140.12 118.3, 121.88 118.5 M151.5 88.88 C151.92 109.26, 142.73 116.49, 121.88 118.5 M121.88 118.5 C98.33 118.48, 76.76 120.54, 29.63 118.5 M121.88 118.5 C93.43 117.81, 63.91 117.11, 29.63 118.5 M29.63 118.5 C8.27 120.2, -1.46 109.48, 0 88.88 M29.63 118.5 C9.27 117.48, -2.04 106.58, 0 88.88 M0 88.88 C0.76 69.62, 1.82 52.59, 0 29.63 M0 88.88 C0.26 65.44, 0.26 43.92, 0 29.63 M0 29.63 C-0.7 9.64, 8.26 0.95, 29.63 0 M0 29.63 C0.19 11.16, 8.37 0.94, 29.63 0" stroke="#1e1e1e" stroke-width="2" fill="none"></path></g><g transform="translate(462.9365234375 100.5) rotate(0 29.8974609375 12.25)"><text x="0" y="19.714843749999996" font-family="Cascadia, Segoe UI Emoji" font-size="20.416666666666664px" fill="#1e1e1e" text-anchor="start" style="white-space: pre;" direction="ltr" dominant-baseline="alphabetic">Serve</text></g><g stroke-linecap="round" transform="translate(421.75 243.25) rotate(0 75.75 59.25)"><path d="M29.63 0 C58.08 -0.24, 87.38 1.96, 121.88 0 M29.63 0 C49.61 -0.78, 70.46 -0.57, 121.88 0 M121.88 0 C140.49 1.11, 151.32 8.95, 151.5 29.63 M121.88 0 C139.86 -1.53, 151.51 11.12, 151.5 29.63 M151.5 29.63 C151.47 42.59, 150.5 52.2, 151.5 88.88 M151.5 29.63 C150.68 46.15, 150.81 65.22, 151.5 88.88 M151.5 88.88 C152.47 109.68, 141.74 117, 121.88 118.5 M151.5 88.88 C153.76 110.77, 143.43 119.24, 121.88 118.5 M121.88 118.5 C91.52 119.7, 64.59 119.65, 29.63 118.5 M121.88 118.5 C94.89 119.02, 68.91 117.67, 29.63 118.5 M29.63 118.5 C11.04 118.38, -1.4 108.6, 0 88.88 M29.63 118.5 C9.92 120.08, 1.82 107.05, 0 88.88 M0 88.88 C1.61 72.04, -0.26 57.36, 0 29.63 M0 88.88 C0.54 72.35, 0.37 53.71, 0 29.63 M0 29.63 C-0.14 8.64, 11.31 0.05, 29.63 0 M0 29.63 C0.39 11.46, 11.02 -1.03, 29.63 0" stroke="#1e1e1e" stroke-width="2" fill="none"></path></g><g stroke-linecap="round"><g transform="translate(515 166.5) rotate(0 1.5 39.75)"><path d="M0.64 1.05 C0.86 14.09, 2.11 65.29, 2.48 78.34 M-0.48 0.56 C-0.57 13.69, 0.85 65.94, 1.26 79.27" stroke="#1e1e1e" stroke-width="2" fill="none"></path></g><g transform="translate(515 166.5) rotate(0 1.5 39.75)"><path d="M-7.95 56.02 C-2.5 64.37, -2.52 74.23, 1.26 79.27 M-7.95 56.02 C-4.95 62.31, -3.56 69.5, 1.26 79.27" stroke="#1e1e1e" stroke-width="2" fill="none"></path></g><g transform="translate(515 166.5) rotate(0 1.5 39.75)"><path d="M9.15 55.55 C7.78 64.18, 0.94 74.22, 1.26 79.27 M9.15 55.55 C7.26 61.86, 3.78 69.18, 1.26 79.27" stroke="#1e1e1e" stroke-width="2" fill="none"></path></g></g><mask></mask><g stroke-linecap="round"><g transform="translate(479.02552038153544 242.08530549329703) rotate(0 0.25 -38)"><path d="M0.87 -0.28 C0.86 -12.97, -0.1 -64.03, 0.02 -76.49 M-0.14 -1.48 C-0.34 -13.97, -1.43 -62.65, -1.18 -75.21" stroke="#1e1e1e" stroke-width="2" fill="none"></path></g><g transform="translate(479.02552038153544 242.08530549329703) rotate(0 0.25 -38)"><path d="M7.46 -51.76 C4.44 -59.6, 1.48 -64.16, -1.18 -75.21 M7.46 -51.76 C5.21 -60.43, 0.57 -69.27, -1.18 -75.21" stroke="#1e1e1e" stroke-width="2" fill="none"></path></g><g transform="translate(479.02552038153544 242.08530549329703) rotate(0 0.25 -38)"><path d="M-9.64 -51.69 C-7.48 -59.67, -5.27 -64.25, -1.18 -75.21 M-9.64 -51.69 C-5.38 -60.25, -3.51 -69.12, -1.18 -75.21" stroke="#1e1e1e" stroke-width="2" fill="none"></path></g></g><mask></mask><g transform="translate(525.0567321777344 186.75) rotate(0 82.67959594726562 11.75)"><text x="0" y="18.910156249999993" font-family="Cascadia, Segoe UI Emoji" font-size="19.58333333333333px" fill="#1e1e1e" text-anchor="start" style="white-space: pre;" direction="ltr" dominant-baseline="alphabetic">操作(Operation)</text></g><g transform="translate(329.8204040527344 195.25) rotate(0 65.47061157226562 11.75)"><text x="0" y="18.910156249999993" font-family="Cascadia, Segoe UI Emoji" font-size="19.58333333333333px" fill="#1e1e1e" text-anchor="start" style="white-space: pre;" direction="ltr" dominant-baseline="alphabetic">返回(return)</text></g><g transform="translate(452.6025390625 293.75) rotate(0 47.8359375 12.25)"><text x="0" y="19.714843749999996" font-family="Cascadia, Segoe UI Emoji" font-size="20.416666666666664px" fill="#1e1e1e" text-anchor="start" style="white-space: pre;" direction="ltr" dominant-baseline="alphabetic">DataBase</text></g><g stroke-linecap="round" transform="translate(10 10) rotate(0 346.25 209)"><path d="M32 0 C207.46 1.89, 382.93 2.23, 660.5 0 M32 0 C226.54 -1.18, 420.49 -0.89, 660.5 0 M660.5 0 C683.11 0.17, 693.92 9.54, 692.5 32 M660.5 0 C682.41 -1.28, 690.98 10.87, 692.5 32 M692.5 32 C691.81 130.34, 690.11 226.5, 692.5 386 M692.5 32 C690.26 126.77, 690.77 220, 692.5 386 M692.5 386 C692.2 408.35, 681.53 418.13, 660.5 418 M692.5 386 C694.69 405.21, 681.01 415.85, 660.5 418 M660.5 418 C519.84 416.72, 380.3 416.01, 32 418 M660.5 418 C426 419.35, 191.61 419.6, 32 418 M32 418 C10.43 416.81, -0.88 408.95, 0 386 M32 418 C11.31 416.82, -1.62 407.6, 0 386 M0 386 C1.57 286.27, 1.93 186.83, 0 32 M0 386 C-2.12 282.09, -2.11 178.36, 0 32 M0 32 C0.79 12.01, 9.52 0.16, 32 0 M0 32 C-0.3 9.42, 10.95 0.65, 32 0" stroke="#1e1e1e" stroke-width="2" fill="none"></path></g><g transform="translate(58.776692708333314 311.5) rotate(0 54.80143229166666 17.5)"><text x="0" y="28.164062500000007" font-family="Cascadia, Segoe UI Emoji" font-size="29.166666666666675px" fill="#1e1e1e" text-anchor="start" style="white-space: pre;" direction="ltr" dominant-baseline="alphabetic">B/S架构</text></g></svg>